# xmcd
#
# Track frame offsets:
#	150
#	31122
#	64273
#	90297
#	110984
#	129219
#	153579
#
# Disc length: 2476 seconds
#
# Revision: 3
# Processed by: cddbd v1.5.2PL0 Copyright (c) Steve Scherf et al.
# Submitted via: EasyCDDAExtractor 2010.6.0.0
#
DISCID=5209aa07
DTITLE=Billy Branch and Lurrie Bell and The Sons Of Blues - Chicago's Young Blue
DTITLE=s Generation
DYEAR=1982
DGENRE=Blues
TTITLE0=Help Me
TTITLE1=Breakin' Up Somebody's Home
TTITLE2=Sweet Little Angel
TTITLE3=Don't Start Me Talkin' 
TTITLE4=Just A Little Bit
TTITLE5=I Need You So Bad
TTITLE6=Mystery Train
EXTD=
EXTT0=
EXTT1=
EXTT2=
EXTT3=
EXTT4=
EXTT5=
EXTT6=
PLAYORDER=
